<svg width="48" height="48" fill="none" xmlns="http://www.w3.org/2000/svg"><path fill-rule="evenodd" clip-rule="evenodd" d="M24 0a24 24 0 110 48 24 24 0 010-48zm3.91 25.6c-.17-.16-.28-.17-.46 0-.52.47-1.07.92-1.6 1.38a3.2 3.2 0 01-4.27-.02c-.54-.47-1.08-.91-1.61-1.38-.15-.13-.24-.13-.4 0-2.59 2.4-5.2 4.79-7.8 7.18-.06.06-.17.1-.14.24h24.18c-.02-.14-.1-.18-.17-.24l-2.33-2.16-5.4-5zm9.82-8.72c-.06-.03-.11 0-.16.05l-.05.06-.03.02-7.96 6.82c-.22.19-.2.28 0 .46l5.17 4.77 2.72 2.51c.17.16.25.15.3-.08.07-.23.07-.46.07-.7v-6.67-6.98c0-.09.04-.22-.06-.26zm-27.99 0l-.04.01c-.16.09-.08.4-.08.6v12.99c0 .28.02.56.05.84.01.13.01.3.15.35.12.03.2-.12.28-.2l7.84-7.2c.18-.17.2-.26 0-.42l-7.77-6.63c-.15-.13-.32-.41-.47-.33l.04-.01zM23.71 15H11.84c-.21 0-.42 0-.62.06-.07.03-.17.02-.2.11 0 .08.08.1.13.15l1.1.94 10.6 9.07c.69.58 1.08.57 1.76-.01l10.85-9.3.99-.85c-.3-.18-.58-.17-.87-.17H11.84 23.7z" fill="#fff"/></svg>