<svg width="112" height="17" fill="#95FCDE" xmlns="http://www.w3.org/2000/svg"><path d="M.32 16V1.45H2.9v8.02h.18L6.99 5.1h3L5.77 9.8l4.47 6.2H7.17l-3.34-4.67-.94 1V16H.32zm18.14-4.59V5.1h2.57V16h-2.5v-1.94h-.1a3.28 3.28 0 01-1.22 1.5c-.56.39-1.25.58-2.07.58a3.46 3.46 0 01-2.62-1.06 4.25 4.25 0 01-1.01-3.04V5.09h2.57v6.55c0 .7.19 1.24.57 1.65.38.4.87.6 1.49.6a2.36 2.36 0 001.97-1.1c.23-.36.35-.82.35-1.38zM23.48 16V5.1h2.49v1.8h.11a2.72 2.72 0 012.7-1.97 5.93 5.93 0 01.92.08v2.36a4.77 4.77 0 00-1.2-.15c-.7 0-1.29.22-1.76.67-.46.44-.7 1-.7 1.7V16h-2.56zm7.73 0V5.1h2.45v1.84h.13c.23-.62.6-1.1 1.13-1.46a3.28 3.28 0 011.88-.53c.74 0 1.36.18 1.87.53.51.36.87.84 1.08 1.46h.11c.24-.6.65-1.08 1.22-1.44a3.76 3.76 0 012.06-.55c1 0 1.82.32 2.45.95.64.64.96 1.56.96 2.78V16h-2.58V9.08c0-.68-.18-1.18-.54-1.49-.36-.32-.8-.47-1.32-.47-.62 0-1.1.19-1.46.58-.34.38-.52.88-.52 1.5V16h-2.52V8.97c0-.56-.17-1.01-.51-1.35-.34-.34-.78-.5-1.32-.5-.55 0-1.03.2-1.42.62-.39.41-.58.95-.58 1.63V16H31.2zm20.88.22a4.03 4.03 0 01-2.6-.84c-.7-.56-1.05-1.37-1.05-2.44 0-.82.2-1.45.6-1.9.4-.46.9-.79 1.53-1 .64-.2 1.3-.34 2.01-.42.97-.1 1.65-.2 2.07-.29.42-.09.63-.32.63-.69V8.6c0-.54-.16-.95-.47-1.24-.32-.3-.78-.44-1.37-.44-.63 0-1.13.13-1.5.4-.37.28-.61.6-.74.98l-2.4-.34c.28-1 .84-1.74 1.66-2.25.83-.5 1.82-.76 2.96-.76.52 0 1.04.06 1.56.18.53.13 1 .33 1.43.61.44.29.79.67 1.05 1.15.26.49.4 1.09.4 1.8V16h-2.48v-1.5h-.08c-.24.46-.61.86-1.14 1.2-.52.35-1.2.52-2.07.52zm.67-1.89c.78 0 1.4-.22 1.85-.67.45-.44.68-.97.68-1.57V10.8c-.1.1-.31.17-.6.24-.3.07-.6.13-.93.17-.32.05-.6.1-.83.12-.57.08-1.05.24-1.43.48-.39.23-.58.6-.58 1.09 0 .47.17.83.52 1.07.35.24.79.36 1.32.36zM60.24 16V1.45h2.57v8.02h.18L66.9 5.1h3L65.7 9.8l4.47 6.2H67.1l-3.34-4.67-.94 1V16h-2.57zm12.77.16c-.43 0-.8-.16-1.1-.46-.32-.3-.47-.68-.46-1.1 0-.43.14-.8.45-1.1.3-.3.68-.45 1.1-.45.43 0 .8.15 1.1.45a1.54 1.54 0 010 2.2c-.3.3-.67.46-1.09.46zm4.02-.16V5.1h2.57V16h-2.57zm1.29-12.46a1.5 1.5 0 01-1.06-.4c-.29-.28-.43-.6-.43-.99s.14-.72.43-.99c.3-.27.65-.4 1.06-.4.4 0 .75.13 1.04.4.3.27.44.6.44 1 0 .37-.14.7-.44.98-.29.27-.63.4-1.04.4zm6.3 6.07V16h-2.58V5.1h2.46v1.84h.13c.25-.6.65-1.08 1.2-1.44a3.65 3.65 0 012.05-.55c1.13 0 2.03.36 2.71 1.07.69.72 1.03 1.73 1.03 3.03V16h-2.58V9.45c0-.73-.19-1.3-.56-1.71a2 2 0 00-1.56-.62c-.68 0-1.23.22-1.66.66-.43.43-.65 1.04-.65 1.83zm15-4.52v1.99h-2.26V16h-2.57V7.08h-1.61V5.09h1.6V4.06c0-.73.16-1.34.46-1.83.31-.49.72-.85 1.24-1.1A4 4 0 0198.2.77a5.93 5.93 0 011.95.3l-.52 1.99a3.9 3.9 0 00-.96-.16c-.47 0-.81.12-1.01.35-.2.23-.3.56-.3.98v.86h2.27zm6.17 11.12a5.28 5.28 0 01-2.77-.7 4.77 4.77 0 01-1.81-1.97 6.5 6.5 0 01-.64-2.95c0-1.13.21-2.11.64-2.96a4.76 4.76 0 011.82-1.97c.78-.47 1.7-.71 2.76-.71 1.07 0 2 .24 2.77.7a4.7 4.7 0 011.82 1.98c.43.85.64 1.83.64 2.96 0 1.12-.21 2.1-.64 2.95a4.71 4.71 0 01-1.82 1.97c-.78.47-1.7.7-2.77.7zm.02-2.06a2.2 2.2 0 001.45-.47c.39-.32.67-.75.86-1.29.2-.54.3-1.15.3-1.8 0-.68-.1-1.28-.3-1.82a2.86 2.86 0 00-.86-1.3 2.17 2.17 0 00-1.45-.48c-.59 0-1.08.16-1.47.48-.39.32-.68.76-.88 1.3-.19.54-.29 1.14-.29 1.81 0 .66.1 1.27.3 1.81.19.54.48.97.87 1.29.4.31.88.47 1.47.47z" /></svg>