<svg width="48" height="48" fill="none" xmlns="http://www.w3.org/2000/svg"><path fill-rule="evenodd" clip-rule="evenodd" d="M24 0a24 24 0 110 48 24 24 0 010-48zm11.7 12.9l-.8.1-2 .7-1 .5-1.9.8-1 .4-2 .8-1 .4-1.5.6-1 .5-1.7.6-1 .4-2 .9-1 .4-2 .8-1.1.4-1.5.6-1 .4-2 .8-1.1.5-.4.1-1.3.7c-.2.2-.4.4-.4.7 0 .4.2.8.6 1l1 .3 2.8.9 2 .5a4 4 0 001.7 0c.5 0 1-.2 1.4-.5l2-1.3 2-1.3 1.7-1.1 1.8-1.2 1.3-1 2.2-1.4c.6-.3 1.1-.7 1.8-.8h.4v.5l-.6 1-1.9 1.8-2.3 2.2-3.2 3-1.3 1.2c-.3.3-.3.8-.1 1.3.1.3.4.5.6.7l1.9 1.4 1 .7 1.8 1.2 1.7 1.1 1.5 1 1.3.7 1.3.4c.5.2 1 .2 1.4 0a2 2 0 001-1.5c.2-.5.2-1 .3-1.6l.1-.9.4-1.9v-.7l.3-1.4.2-1.5.4-2.5.2-.8.3-1.9.2-1.4.3-2.2.2-1.3.3-2.2.2-1c0-.4 0-.7-.3-1-.2-.5-.7-.6-1.2-.6z" fill="#fff"/></svg>