<svg width="89" height="14" fill="none" xmlns="http://www.w3.org/2000/svg"><path d="M.06 13V1.36H2.1v6.42h.15l3.13-3.5h2.4L4.42 8.03 8 13H5.53L2.86 9.27l-.75.8V13H.06zm14.5-3.67V4.27h2.07V13h-2v-1.55h-.09c-.2.49-.52.89-.97 1.2-.45.3-1 .46-1.65.46-.86 0-1.56-.28-2.1-.85A3.4 3.4 0 019 9.83V4.27h2.05v5.24c0 .55.15 1 .46 1.32.3.33.7.49 1.2.49a1.89 1.89 0 001.57-.88c.19-.3.28-.67.28-1.11zM18.59 13V4.27h2v1.46h.09a2.18 2.18 0 012.15-1.58 4.75 4.75 0 01.74.05v1.9a3.82 3.82 0 00-.95-.12c-.57 0-1.04.18-1.42.53-.37.35-.55.8-.55 1.36V13h-2.06zm6.18 0V4.27h1.97v1.49h.1c.18-.5.49-.9.9-1.17.43-.29.93-.43 1.51-.43.59 0 1.09.14 1.5.43.4.28.7.67.86 1.17h.09c.2-.49.52-.88.98-1.16.46-.3 1-.44 1.64-.44.8 0 1.46.25 1.97.76.5.5.76 1.25.76 2.22V13h-2.07V7.46c0-.54-.14-.94-.43-1.19a1.54 1.54 0 00-1.05-.38c-.5 0-.89.16-1.17.47-.28.3-.41.7-.41 1.2V13h-2.02V7.37c0-.45-.14-.8-.41-1.07-.27-.27-.62-.4-1.06-.4-.44 0-.82.16-1.13.5-.31.32-.47.76-.47 1.3V13h-2.06zm16.72.18c-.84 0-1.53-.23-2.09-.67-.56-.45-.84-1.1-.84-1.96 0-.65.16-1.16.48-1.52a2.7 2.7 0 011.23-.8c.5-.16 1.04-.27 1.6-.33.78-.09 1.33-.16 1.66-.24.34-.07.5-.25.5-.55v-.03c0-.43-.12-.76-.37-1-.26-.23-.62-.35-1.1-.35-.5 0-.9.11-1.2.33-.3.22-.49.48-.6.78l-1.91-.27a3 3 0 011.33-1.8c.66-.4 1.45-.61 2.37-.61.41 0 .83.05 1.25.15.41.1.8.26 1.14.49.35.22.63.53.83.92.22.38.32.86.32 1.44V13h-1.97v-1.2h-.07c-.19.37-.5.7-.91.97-.42.27-.97.4-1.65.4zm.53-1.52c.62 0 1.11-.17 1.48-.53.36-.36.54-.78.54-1.26V8.84c-.09.07-.25.14-.48.2a730.46 730.46 0 00-1.4.23c-.46.06-.85.19-1.15.38-.3.18-.46.47-.46.87 0 .38.14.66.41.86.28.19.63.28 1.06.28zM47.99 13V1.36h2.06v6.42h.14l3.14-3.5h2.4l-3.38 3.76L55.93 13h-2.46L50.8 9.27l-.75.8V13h-2.06zm10.22.13c-.35 0-.64-.13-.89-.37a1.19 1.19 0 01-.36-.88c0-.35.12-.64.36-.88.25-.24.54-.36.89-.36.33 0 .63.12.87.36a1.23 1.23 0 010 1.76 1.2 1.2 0 01-.87.36zm3.21-.13V4.27h2.06V13h-2.06zm1.04-9.97c-.33 0-.62-.1-.85-.32a1.05 1.05 0 01-.35-.79c0-.31.12-.57.35-.79.23-.22.52-.33.85-.33.32 0 .6.11.83.33.24.22.35.48.35.79 0 .3-.11.57-.35.79-.23.22-.5.32-.83.32zm5.03 4.86V13h-2.06V4.27h1.97v1.49h.1c.2-.49.52-.88.96-1.16.44-.3 1-.44 1.64-.44.9 0 1.63.29 2.17.86.55.57.83 1.38.82 2.42V13h-2.05V7.76c0-.58-.16-1.04-.46-1.37a1.6 1.6 0 00-1.24-.5c-.55 0-.99.18-1.33.53-.35.35-.52.83-.52 1.47zM79.5 4.27v1.6h-1.81V13h-2.06V5.86h-1.29V4.27h1.3v-.82c0-.59.11-1.08.35-1.47.25-.39.58-.68 1-.87.4-.2.86-.3 1.37-.3a4.75 4.75 0 011.56.25l-.41 1.59a3.12 3.12 0 00-.77-.13c-.38 0-.65.1-.81.28-.16.18-.24.44-.24.79v.68h1.81zm4.94 8.9c-.86 0-1.6-.19-2.22-.56a3.82 3.82 0 01-1.45-1.58 5.2 5.2 0 01-.52-2.36c0-.9.17-1.69.52-2.36.34-.68.82-1.2 1.45-1.58a4.2 4.2 0 012.22-.57c.85 0 1.59.19 2.21.57.63.37 1.12.9 1.46 1.58.34.67.5 1.46.5 2.36 0 .9-.16 1.69-.5 2.36-.34.68-.83 1.2-1.46 1.58-.62.37-1.36.56-2.21.56zm0-1.65c.47 0 .86-.12 1.17-.38.3-.25.54-.6.69-1.03.15-.43.23-.91.23-1.45 0-.53-.08-1.01-.23-1.44a2.3 2.3 0 00-.7-1.04c-.3-.26-.69-.39-1.15-.39-.47 0-.86.13-1.18.39-.31.25-.54.6-.7 1.04-.15.43-.23.91-.23 1.44 0 .54.08 1.02.23 1.45.16.44.39.78.7 1.03.32.26.7.38 1.18.38z" fill="#95FCDE"/></svg>